<mxfile host="Electron" agent="Mozilla/5.0 (Windows NT 10.0; Win64; x64) AppleWebKit/537.36 (KHTML, like Gecko) draw.io/26.0.16 Chrome/132.0.6834.196 Electron/34.2.0 Safari/537.36" version="26.0.16">
  <diagram id="C5RBs43oDa-KdzZeNtuy" name="Page-1">
    <mxGraphModel dx="2589" dy="880" grid="1" gridSize="10" guides="1" tooltips="1" connect="1" arrows="1" fold="1" page="1" pageScale="1" pageWidth="827" pageHeight="1169" math="0" shadow="0">
      <root>
        <mxCell id="WIyWlLk6GJQsqaUBKTNV-0" />
        <mxCell id="WIyWlLk6GJQsqaUBKTNV-1" parent="WIyWlLk6GJQsqaUBKTNV-0" />
        <mxCell id="PvDtRrnwb-fSMQS6-H2E-0" value="Login" style="swimlane;fontStyle=0;childLayout=stackLayout;horizontal=1;startSize=26;fillColor=none;horizontalStack=0;resizeParent=1;resizeParentMax=0;resizeLast=0;collapsible=1;marginBottom=0;whiteSpace=wrap;html=1;" parent="WIyWlLk6GJQsqaUBKTNV-1" vertex="1">
          <mxGeometry x="-60" y="170" width="270" height="178" as="geometry" />
        </mxCell>
        <mxCell id="PvDtRrnwb-fSMQS6-H2E-1" value="username : String" style="text;strokeColor=none;fillColor=none;align=left;verticalAlign=top;spacingLeft=4;spacingRight=4;overflow=hidden;rotatable=0;points=[[0,0.5],[1,0.5]];portConstraint=eastwest;whiteSpace=wrap;html=1;" parent="PvDtRrnwb-fSMQS6-H2E-0" vertex="1">
          <mxGeometry y="26" width="270" height="24" as="geometry" />
        </mxCell>
        <mxCell id="PvDtRrnwb-fSMQS6-H2E-9" value="" style="endArrow=none;html=1;rounded=0;entryX=1;entryY=0.5;entryDx=0;entryDy=0;exitX=0;exitY=0.5;exitDx=0;exitDy=0;" parent="PvDtRrnwb-fSMQS6-H2E-0" source="PvDtRrnwb-fSMQS6-H2E-2" target="PvDtRrnwb-fSMQS6-H2E-2" edge="1">
          <mxGeometry width="50" height="50" relative="1" as="geometry">
            <mxPoint y="100" as="sourcePoint" />
            <mxPoint x="50" y="50" as="targetPoint" />
          </mxGeometry>
        </mxCell>
        <mxCell id="PvDtRrnwb-fSMQS6-H2E-2" value="password: String&lt;br&gt;stage: Stage&lt;br&gt;Create Account: new UserProfile&lt;br&gt;userDatabaseStub: UserDatabaseStub&lt;br&gt;- setCredentials(username, password): boolean&lt;div&gt;- authenticate(): boolean&lt;br&gt;&lt;/div&gt;&lt;div&gt;+ Login( Stage stage)&lt;/div&gt;&lt;div&gt;show( ) : void&lt;/div&gt;" style="text;strokeColor=none;fillColor=none;align=left;verticalAlign=top;spacingLeft=4;spacingRight=4;overflow=hidden;rotatable=0;points=[[0,0.5],[1,0.5]];portConstraint=eastwest;whiteSpace=wrap;html=1;" parent="PvDtRrnwb-fSMQS6-H2E-0" vertex="1">
          <mxGeometry y="50" width="270" height="128" as="geometry" />
        </mxCell>
        <mxCell id="PvDtRrnwb-fSMQS6-H2E-10" style="edgeStyle=orthogonalEdgeStyle;rounded=0;orthogonalLoop=1;jettySize=auto;html=1;exitX=0.5;exitY=1;exitDx=0;exitDy=0;entryX=0.5;entryY=1.004;entryDx=0;entryDy=0;entryPerimeter=0;" parent="PvDtRrnwb-fSMQS6-H2E-0" source="PvDtRrnwb-fSMQS6-H2E-0" target="PvDtRrnwb-fSMQS6-H2E-2" edge="1">
          <mxGeometry relative="1" as="geometry" />
        </mxCell>
        <mxCell id="PvDtRrnwb-fSMQS6-H2E-4" value="UserProfile" style="swimlane;fontStyle=1;align=center;verticalAlign=top;childLayout=stackLayout;horizontal=1;startSize=26;horizontalStack=0;resizeParent=1;resizeParentMax=0;resizeLast=0;collapsible=1;marginBottom=0;whiteSpace=wrap;html=1;" parent="WIyWlLk6GJQsqaUBKTNV-1" vertex="1">
          <mxGeometry x="333" y="410" width="160" height="270" as="geometry" />
        </mxCell>
        <mxCell id="PvDtRrnwb-fSMQS6-H2E-5" value="username : String&lt;div&gt;&lt;br&gt;&lt;/div&gt;&lt;div&gt;password : String&lt;br&gt;&lt;br&gt;Email: String&lt;/div&gt;&lt;div&gt;&lt;br&gt;&lt;/div&gt;&lt;div&gt;UCID: String&lt;/div&gt;" style="text;strokeColor=none;fillColor=none;align=left;verticalAlign=top;spacingLeft=4;spacingRight=4;overflow=hidden;rotatable=0;points=[[0,0.5],[1,0.5]];portConstraint=eastwest;whiteSpace=wrap;html=1;" parent="PvDtRrnwb-fSMQS6-H2E-4" vertex="1">
          <mxGeometry y="26" width="160" height="114" as="geometry" />
        </mxCell>
        <mxCell id="PvDtRrnwb-fSMQS6-H2E-6" value="" style="line;strokeWidth=1;fillColor=none;align=left;verticalAlign=middle;spacingTop=-1;spacingLeft=3;spacingRight=3;rotatable=0;labelPosition=right;points=[];portConstraint=eastwest;strokeColor=inherit;" parent="PvDtRrnwb-fSMQS6-H2E-4" vertex="1">
          <mxGeometry y="140" width="160" height="50" as="geometry" />
        </mxCell>
        <mxCell id="PvDtRrnwb-fSMQS6-H2E-7" value="+ getUsername: String&lt;br&gt;+ getPassword: String&lt;div&gt;+ getEmail: String&lt;div&gt;+ getUCID: String&lt;div&gt;&lt;br&gt;&lt;/div&gt;&lt;/div&gt;&lt;/div&gt;" style="text;strokeColor=none;fillColor=none;align=left;verticalAlign=top;spacingLeft=4;spacingRight=4;overflow=hidden;rotatable=0;points=[[0,0.5],[1,0.5]];portConstraint=eastwest;whiteSpace=wrap;html=1;" parent="PvDtRrnwb-fSMQS6-H2E-4" vertex="1">
          <mxGeometry y="190" width="160" height="80" as="geometry" />
        </mxCell>
        <mxCell id="8LikcykyZ1sta-j2PfV9-8" value="&lt;p style=&quot;margin:0px;margin-top:4px;text-align:center;&quot;&gt;&lt;b&gt;ClassDatabaseStub&lt;/b&gt;&lt;/p&gt;&lt;hr size=&quot;1&quot; style=&quot;border-style:solid;&quot;&gt;&lt;div style=&quot;height:2px;&quot;&gt;&amp;nbsp;+ getUserID(): String [ ]&lt;br&gt;&lt;br&gt;&lt;/div&gt;&lt;div style=&quot;height:2px;&quot;&gt;&lt;br&gt;&amp;nbsp;+ getProfiles() : Hashmap &amp;lt; String, String&amp;gt;&lt;/div&gt;&lt;div style=&quot;height:2px;&quot;&gt;&lt;br&gt;&lt;/div&gt;&lt;div style=&quot;height:2px;&quot;&gt;&lt;br&gt;&lt;/div&gt;&lt;div style=&quot;height:2px;&quot;&gt;&lt;br&gt;&lt;/div&gt;&lt;div style=&quot;height:2px;&quot;&gt;&lt;br&gt;&lt;/div&gt;&lt;div style=&quot;height:2px;&quot;&gt;&lt;br&gt;&lt;/div&gt;&lt;div style=&quot;height:2px;&quot;&gt;&lt;br&gt;&lt;/div&gt;&lt;div style=&quot;height:2px;&quot;&gt;&lt;br&gt;&lt;/div&gt;&lt;div style=&quot;height:2px;&quot;&gt;&lt;br&gt;&amp;nbsp;+ getPassword(String user): String&lt;br&gt;&amp;nbsp;+ authenticateUser(): boolean&lt;br&gt;&amp;nbsp;+addUserExternal(UserProfile user): void&amp;nbsp;&lt;br&gt;&amp;nbsp;+deleteUserExternal(User Profile user): void&lt;br&gt;&lt;/div&gt;&lt;div style=&quot;height:2px;&quot;&gt;&amp;nbsp;&lt;br&gt;&lt;br&gt;&lt;br&gt;&lt;br&gt;&lt;br&gt;&lt;br&gt;&lt;/div&gt;" style="verticalAlign=top;align=left;overflow=fill;html=1;whiteSpace=wrap;" parent="WIyWlLk6GJQsqaUBKTNV-1" vertex="1">
          <mxGeometry x="-130" y="709" width="270" height="131" as="geometry" />
        </mxCell>
        <mxCell id="cJUZXaN5l2rwxsSuyYKl-1" value="&lt;p style=&quot;margin:0px;margin-top:4px;text-align:center;&quot;&gt;&lt;br&gt;&lt;/p&gt;&lt;p style=&quot;margin:0px;margin-top:4px;text-align:center;&quot;&gt;&lt;br&gt;&lt;/p&gt;&lt;hr size=&quot;1&quot; style=&quot;border-style:solid;&quot;&gt;&lt;div style=&quot;height:2px;&quot;&gt;&amp;nbsp;+ AccountFeatures(UserProfile userProfile)&amp;nbsp; &amp;nbsp; &lt;br&gt;&amp;nbsp;+ changeUsername(String newUsername): boolean&amp;nbsp; &amp;nbsp; &amp;nbsp;&lt;br&gt;&amp;nbsp;+ changePassword(String oldPassword,&amp;nbsp; String&amp;nbsp; &amp;nbsp; &amp;nbsp;newPassword) : boolean&amp;nbsp; &amp;nbsp; &amp;nbsp;&lt;br&gt;&amp;nbsp;+ setProfilePicture(String imagePath): void&amp;nbsp; &amp;nbsp; &amp;nbsp;&lt;br&gt;&amp;nbsp;+ setStatus(String status) : void&amp;nbsp; &amp;nbsp; &amp;nbsp;&lt;br&gt;&amp;nbsp;+ linkEmail(String email): boolean&amp;nbsp; &amp;nbsp; &amp;nbsp;&lt;br&gt;&amp;nbsp;+ linkPhoneNumber(String phoneNumber) : boolean&amp;nbsp; &amp;nbsp; &amp;nbsp;&lt;br&gt;&amp;nbsp;+ setup2FA(boolean enabled) : void&amp;nbsp; &amp;nbsp; &amp;nbsp;&lt;br&gt;&amp;nbsp;+ sendFriendRequest(String friendUsername): boolean&amp;nbsp; &amp;nbsp;+ unfriend(String friendUsername) : boolean&amp;nbsp; &amp;nbsp;&amp;nbsp;&lt;br&gt;&amp;nbsp;+ blockUser(String username) : boolean&amp;nbsp; &amp;nbsp;&amp;nbsp;&lt;br&gt;&amp;nbsp;+ logout( ) : void&lt;/div&gt;" style="verticalAlign=top;align=left;overflow=fill;html=1;whiteSpace=wrap;" parent="WIyWlLk6GJQsqaUBKTNV-1" vertex="1">
          <mxGeometry x="670" y="370" width="300" height="300" as="geometry" />
        </mxCell>
        <mxCell id="cJUZXaN5l2rwxsSuyYKl-3" value="AccountFeatures" style="rounded=0;whiteSpace=wrap;html=1;" parent="WIyWlLk6GJQsqaUBKTNV-1" vertex="1">
          <mxGeometry x="670" y="340" width="300" height="30" as="geometry" />
        </mxCell>
        <mxCell id="cJUZXaN5l2rwxsSuyYKl-4" value="userProfile : UserProfile" style="text;html=1;align=center;verticalAlign=middle;whiteSpace=wrap;rounded=0;" parent="WIyWlLk6GJQsqaUBKTNV-1" vertex="1">
          <mxGeometry x="670" y="380" width="130" height="30" as="geometry" />
        </mxCell>
        <mxCell id="cJUZXaN5l2rwxsSuyYKl-6" value="UserProfileWindow" style="swimlane;fontStyle=1;align=center;verticalAlign=top;childLayout=stackLayout;horizontal=1;startSize=26;horizontalStack=0;resizeParent=1;resizeParentMax=0;resizeLast=0;collapsible=1;marginBottom=0;whiteSpace=wrap;html=1;" parent="WIyWlLk6GJQsqaUBKTNV-1" vertex="1">
          <mxGeometry x="340" y="730" width="390" height="320" as="geometry" />
        </mxCell>
        <mxCell id="cJUZXaN5l2rwxsSuyYKl-7" value="&lt;div&gt;&amp;nbsp;stage : Stage&lt;/div&gt;&lt;div&gt;&amp;nbsp;scene : Scene&lt;/div&gt;&lt;div&gt;&amp;nbsp;mainLayout : BorderPane&lt;/div&gt;&lt;div&gt;&amp;nbsp;userProfile : UserProfile&lt;/div&gt;&lt;div&gt;&amp;nbsp;tabPane : TabPane&lt;/div&gt;&lt;div&gt;&amp;nbsp;Map&amp;lt;String, Integer&amp;gt; gameStats&lt;/div&gt;&lt;div&gt;&amp;nbsp;Map&amp;lt;String, Integer&amp;gt; ranks&lt;/div&gt;&lt;div&gt;&amp;nbsp; AccountManager accountManager&lt;/div&gt;" style="text;strokeColor=none;fillColor=none;align=left;verticalAlign=top;spacingLeft=4;spacingRight=4;overflow=hidden;rotatable=0;points=[[0,0.5],[1,0.5]];portConstraint=eastwest;whiteSpace=wrap;html=1;" parent="cJUZXaN5l2rwxsSuyYKl-6" vertex="1">
          <mxGeometry y="26" width="390" height="134" as="geometry" />
        </mxCell>
        <mxCell id="cJUZXaN5l2rwxsSuyYKl-8" value="" style="line;strokeWidth=1;fillColor=none;align=left;verticalAlign=middle;spacingTop=-1;spacingLeft=3;spacingRight=3;rotatable=0;labelPosition=right;points=[];portConstraint=eastwest;strokeColor=inherit;" parent="cJUZXaN5l2rwxsSuyYKl-6" vertex="1">
          <mxGeometry y="160" width="390" height="8" as="geometry" />
        </mxCell>
        <mxCell id="cJUZXaN5l2rwxsSuyYKl-9" value="&lt;div&gt;+ UserProfileWindow(Stage stage, UserProfile userProfile)&lt;/div&gt;&lt;div&gt;- initializeMockData() : void&lt;/div&gt;&lt;div&gt;- initializeUI() : void&lt;/div&gt;&lt;div&gt;- createHeader() : HBox&lt;/div&gt;&lt;div&gt;- createOverviewPane() : VBox&lt;/div&gt;&lt;div&gt;- createStatsPane() : Node&lt;/div&gt;&lt;div&gt;- createMatchHistoryPane() : Node&lt;/div&gt;&lt;div&gt;- createSettingsPane() : Node&lt;/div&gt;&lt;div&gt;- createStatBox(String title, String value, String color): VBox&lt;/div&gt;&lt;div&gt;&lt;span style=&quot;background-color: transparent; color: light-dark(rgb(0, 0, 0), rgb(255, 255, 255));&quot;&gt;+ show() : void&lt;/span&gt;&lt;/div&gt;" style="text;strokeColor=none;fillColor=none;align=left;verticalAlign=top;spacingLeft=4;spacingRight=4;overflow=hidden;rotatable=0;points=[[0,0.5],[1,0.5]];portConstraint=eastwest;whiteSpace=wrap;html=1;" parent="cJUZXaN5l2rwxsSuyYKl-6" vertex="1">
          <mxGeometry y="168" width="390" height="152" as="geometry" />
        </mxCell>
        <mxCell id="a40oWZ94ywaCzG6t5xFb-0" value="" style="endArrow=open;endFill=1;endSize=12;html=1;rounded=0;exitX=0.01;exitY=0.143;exitDx=0;exitDy=0;exitPerimeter=0;" edge="1" parent="WIyWlLk6GJQsqaUBKTNV-1" source="cJUZXaN5l2rwxsSuyYKl-1" target="PvDtRrnwb-fSMQS6-H2E-5">
          <mxGeometry width="160" relative="1" as="geometry">
            <mxPoint x="620" y="500" as="sourcePoint" />
            <mxPoint x="780" y="500" as="targetPoint" />
          </mxGeometry>
        </mxCell>
        <mxCell id="a40oWZ94ywaCzG6t5xFb-1" value="" style="endArrow=open;endFill=1;endSize=12;html=1;rounded=0;exitX=0.662;exitY=0.016;exitDx=0;exitDy=0;exitPerimeter=0;entryX=1;entryY=0.5;entryDx=0;entryDy=0;" edge="1" parent="WIyWlLk6GJQsqaUBKTNV-1" source="cJUZXaN5l2rwxsSuyYKl-6" target="PvDtRrnwb-fSMQS6-H2E-5">
          <mxGeometry width="160" relative="1" as="geometry">
            <mxPoint x="683" y="423" as="sourcePoint" />
            <mxPoint x="540" y="493" as="targetPoint" />
            <Array as="points">
              <mxPoint x="600" y="490" />
            </Array>
          </mxGeometry>
        </mxCell>
        <mxCell id="a40oWZ94ywaCzG6t5xFb-3" value="" style="endArrow=diamondThin;endFill=1;endSize=24;html=1;rounded=0;exitX=0.463;exitY=0.997;exitDx=0;exitDy=0;exitPerimeter=0;" edge="1" parent="WIyWlLk6GJQsqaUBKTNV-1" source="cJUZXaN5l2rwxsSuyYKl-1" target="cJUZXaN5l2rwxsSuyYKl-7">
          <mxGeometry width="160" relative="1" as="geometry">
            <mxPoint x="680" y="720" as="sourcePoint" />
            <mxPoint x="820" y="670" as="targetPoint" />
            <Array as="points">
              <mxPoint x="810" y="820" />
            </Array>
          </mxGeometry>
        </mxCell>
        <mxCell id="a40oWZ94ywaCzG6t5xFb-4" value="" style="endArrow=open;endFill=1;endSize=12;html=1;rounded=0;" edge="1" parent="WIyWlLk6GJQsqaUBKTNV-1" source="PvDtRrnwb-fSMQS6-H2E-2">
          <mxGeometry width="160" relative="1" as="geometry">
            <mxPoint x="719" y="802" as="sourcePoint" />
            <mxPoint x="340" y="730" as="targetPoint" />
          </mxGeometry>
        </mxCell>
        <mxCell id="a40oWZ94ywaCzG6t5xFb-5" value="" style="endArrow=open;endFill=1;endSize=12;html=1;rounded=0;exitX=0.353;exitY=0.996;exitDx=0;exitDy=0;exitPerimeter=0;" edge="1" parent="WIyWlLk6GJQsqaUBKTNV-1" source="PvDtRrnwb-fSMQS6-H2E-2" target="8LikcykyZ1sta-j2PfV9-8">
          <mxGeometry width="160" relative="1" as="geometry">
            <mxPoint x="70" y="370" as="sourcePoint" />
            <mxPoint x="257" y="730" as="targetPoint" />
          </mxGeometry>
        </mxCell>
        <mxCell id="a40oWZ94ywaCzG6t5xFb-6" value="" style="endArrow=open;endFill=1;endSize=12;html=1;rounded=0;" edge="1" parent="WIyWlLk6GJQsqaUBKTNV-1" target="PvDtRrnwb-fSMQS6-H2E-4">
          <mxGeometry width="160" relative="1" as="geometry">
            <mxPoint x="210" y="270" as="sourcePoint" />
            <mxPoint x="397" y="630" as="targetPoint" />
            <Array as="points">
              <mxPoint x="400" y="270" />
            </Array>
          </mxGeometry>
        </mxCell>
      </root>
    </mxGraphModel>
  </diagram>
</mxfile>
